# xmcd
#
# Track frame offsets: 
#        150
#        13221
#        25838
#        38325
#        51777
#        65026
#        79036
#        91766
#        108628
#        122587
#        139472
#        152356
#        166952
#        178995
#        199310
#        211389
#
# Disc length: 2990 seconds
#
# Revision: 0
# Processed by: cddbd v1.5.2PL0 Copyright (c) Steve Scherf et al.
# Submitted via: ExactAudioCopy v0.99pb4
#
DISCID=d90bac10
DTITLE=Etta James - Live And In The Studio [CD1)
DYEAR=2009
DGENRE=Blues
TTITLE0=At Last
TTITLE1=Something's Got A Hold On Me
TTITLE2=Dance With Me Henry (The Wallflower)
TTITLE3=Trust In Me
TTITLE4=Pushover
TTITLE5=All I Could Do Was Cry
TTITLE6=I'll Fly Away
TTITLE7=Storms Of Troubled Times
TTITLE8=Down By The Riverside
TTITLE9=Blowin' In The Wind
TTITLE10=Swing Low, Sweet Chariot
TTITLE11=To My Father's House
TTITLE12=He's Got The Whole World In His Hands
TTITLE13=Oh Happy Day
TTITLE14=I Saw The Light
TTITLE15=Amen - This Little Light Of Mine
EXTD=
EXTT0=
EXTT1=
EXTT2=
EXTT3=
EXTT4=
EXTT5=
EXTT6=
EXTT7=
EXTT8=
EXTT9=
EXTT10=
EXTT11=
EXTT12=
EXTT13=
EXTT14=
EXTT15=
PLAYORDER=
